<svg viewBox="110 40 220 250" xmlns="http://www.w3.org/2000/svg" fill="#4fae47">
  <path d="M 342.32 49.48 L 339.57 47.40 L 312.60 53.13 L 184.37 53.13 L 162.91 57.81 L 145.84 67.19 L 130.99 83.33 L 119.98 107.81 L 118.88 125.00 L 121.63 126.04 L 137.04 113.02 L 151.35 109.90 L 273.53 109.90 L 296.09 105.21 L 314.25 95.83 L 327.46 83.33 L 336.82 68.23 Z" />
  <path d="M 290.59 137.50 L 238.86 138.02 L 223.45 151.04 L 204.18 163.02 L 140.89 189.06 L 139.79 229.69 L 132.64 275.00 L 139.79 275.52 L 154.10 267.19 L 177.77 245.31 L 193.73 220.31 L 204.18 189.06 L 209.14 182.81 L 226.20 183.85 L 253.16 174.48 L 266.37 166.15 L 286.19 148.44 L 291.14 141.67 Z" opacity="0.9" />
  <path d="M 195.93 122.40 L 154.65 122.40 L 149.70 123.96 L 145.29 127.08 L 140.89 135.42 L 141.44 180.73 L 145.84 179.69 L 162.36 168.75 L 170.06 162.50 L 178.87 153.65 L 191.52 135.94 L 196.48 126.04 Z" opacity="0.85" />
</svg>